<svg xmlns="http://www.w3.org/2000/svg" viewBox="0 0 128 128"><defs><style>.cls-1{fill:#ececec;}.cls-2{fill:#e0d5ce;}.cls-3{fill:#c1b3ac;}.cls-4{fill:#f74141;}.cls-5{fill:#474444;}.cls-6{fill:#383434;}.cls-7{fill:#ef3030;}</style></defs><title>icon32.0c</title><g id="medical_bottle" data-name="medical bottle"><rect class="cls-1" x="21.196" y="22.609" width="85.608" height="99.259" rx="13"/><path class="cls-2" d="M64,22.609H34.2a13,13,0,0,0-13,13v73.259a13,13,0,0,0,13,13H64Z"/><path class="cls-2" d="M95.66,69.025a2,2,0,0,1-2-2V40.439a4.69,4.69,0,0,0-4.685-4.686H63.829a2,2,0,1,1,0-4H88.975a8.7,8.7,0,0,1,8.685,8.686V67.025A2,2,0,0,1,95.66,69.025Z"/><path class="cls-3" d="M64,112.724H39.025a8.7,8.7,0,0,1-8.685-8.686V78.845a2,2,0,1,1,4,0v25.193a4.69,4.69,0,0,0,4.685,4.686H64a2,2,0,0,1,0,4Z"/><path class="cls-4" d="M80.845,69.7v5.069A2.726,2.726,0,0,1,78.119,77.5h-7.5a1.362,1.362,0,0,0-1.362,1.363v7.5a2.726,2.726,0,0,1-2.726,2.726h-5.07a2.726,2.726,0,0,1-2.726-2.726v-7.5A1.362,1.362,0,0,0,57.377,77.5h-7.5a2.726,2.726,0,0,1-2.726-2.726V69.7a2.726,2.726,0,0,1,2.726-2.726h7.5a1.362,1.362,0,0,0,1.362-1.363v-7.5a2.726,2.726,0,0,1,2.726-2.725h5.07a2.726,2.726,0,0,1,2.726,2.725v7.5a1.362,1.362,0,0,0,1.362,1.363h7.5A2.726,2.726,0,0,1,80.845,69.7Z"/><path class="cls-5" d="M53.874,6.132H74.126a3,3,0,0,1,3,3V22.609a0,0,0,0,1,0,0H50.874a0,0,0,0,1,0,0V9.132A3,3,0,0,1,53.874,6.132Z"/><path class="cls-4" d="M84.954,16.49H43.046a2,2,0,0,1,0-4H84.954a2,2,0,1,1,0,4Z"/><path class="cls-6" d="M64,6.132H53.874a3,3,0,0,0-3,3V22.609H64Z"/><path class="cls-7" d="M64,12.49H43.046a2,2,0,0,0,0,4H64Z"/><path class="cls-7" d="M64,55.394H61.465a2.725,2.725,0,0,0-2.725,2.725v7.5a1.363,1.363,0,0,1-1.363,1.363h-7.5A2.726,2.726,0,0,0,47.155,69.7v5.069A2.726,2.726,0,0,0,49.881,77.5h7.5a1.363,1.363,0,0,1,1.363,1.363v7.5a2.725,2.725,0,0,0,2.725,2.726H64Z"/></g></svg>